<svg id="visual" viewBox="0 0 1920 1300" width="1920" height="1300" xmlns="http://www.w3.org/2000/svg" xmlns:xlink="http://www.w3.org/1999/xlink" version="1.1"><rect x="0" y="0" width="1920" height="1300" fill="#001220"></rect><defs><linearGradient id="grad1_0" x1="32.3%" y1="100%" x2="100%" y2="0%"><stop offset="20.46153846153846%" stop-color="#08dcf9" stop-opacity="1"></stop><stop offset="79.53846153846155%" stop-color="#08dcf9" stop-opacity="1"></stop></linearGradient></defs><defs><linearGradient id="grad1_1" x1="32.3%" y1="100%" x2="100%" y2="0%"><stop offset="20.46153846153846%" stop-color="#08dcf9" stop-opacity="1"></stop><stop offset="79.53846153846155%" stop-color="#0daecf" stop-opacity="1"></stop></linearGradient></defs><defs><linearGradient id="grad1_2" x1="32.3%" y1="100%" x2="100%" y2="0%"><stop offset="20.46153846153846%" stop-color="#1482a2" stop-opacity="1"></stop><stop offset="79.53846153846155%" stop-color="#0daecf" stop-opacity="1"></stop></linearGradient></defs><defs><linearGradient id="grad1_3" x1="32.3%" y1="100%" x2="100%" y2="0%"><stop offset="20.46153846153846%" stop-color="#1482a2" stop-opacity="1"></stop><stop offset="79.53846153846155%" stop-color="#145975" stop-opacity="1"></stop></linearGradient></defs><defs><linearGradient id="grad1_4" x1="32.3%" y1="100%" x2="100%" y2="0%"><stop offset="20.46153846153846%" stop-color="#0d3449" stop-opacity="1"></stop><stop offset="79.53846153846155%" stop-color="#145975" stop-opacity="1"></stop></linearGradient></defs><defs><linearGradient id="grad1_5" x1="32.3%" y1="100%" x2="100%" y2="0%"><stop offset="20.46153846153846%" stop-color="#0d3449" stop-opacity="1"></stop><stop offset="79.53846153846155%" stop-color="#001220" stop-opacity="1"></stop></linearGradient></defs><defs><linearGradient id="grad2_0" x1="0%" y1="100%" x2="67.7%" y2="0%"><stop offset="20.46153846153846%" stop-color="#08dcf9" stop-opacity="1"></stop><stop offset="79.53846153846155%" stop-color="#08dcf9" stop-opacity="1"></stop></linearGradient></defs><defs><linearGradient id="grad2_1" x1="0%" y1="100%" x2="67.7%" y2="0%"><stop offset="20.46153846153846%" stop-color="#0daecf" stop-opacity="1"></stop><stop offset="79.53846153846155%" stop-color="#08dcf9" stop-opacity="1"></stop></linearGradient></defs><defs><linearGradient id="grad2_2" x1="0%" y1="100%" x2="67.7%" y2="0%"><stop offset="20.46153846153846%" stop-color="#0daecf" stop-opacity="1"></stop><stop offset="79.53846153846155%" stop-color="#1482a2" stop-opacity="1"></stop></linearGradient></defs><defs><linearGradient id="grad2_3" x1="0%" y1="100%" x2="67.7%" y2="0%"><stop offset="20.46153846153846%" stop-color="#145975" stop-opacity="1"></stop><stop offset="79.53846153846155%" stop-color="#1482a2" stop-opacity="1"></stop></linearGradient></defs><defs><linearGradient id="grad2_4" x1="0%" y1="100%" x2="67.7%" y2="0%"><stop offset="20.46153846153846%" stop-color="#145975" stop-opacity="1"></stop><stop offset="79.53846153846155%" stop-color="#0d3449" stop-opacity="1"></stop></linearGradient></defs><defs><linearGradient id="grad2_5" x1="0%" y1="100%" x2="67.7%" y2="0%"><stop offset="20.46153846153846%" stop-color="#001220" stop-opacity="1"></stop><stop offset="79.53846153846155%" stop-color="#0d3449" stop-opacity="1"></stop></linearGradient></defs><g transform="translate(1920, 1300)"><path d="M-869.5 0C-864.8 -121.5 -860.1 -243 -803.3 -332.7C-746.5 -422.5 -637.6 -480.4 -552.3 -552.3C-466.9 -624.1 -405 -709.8 -316.9 -765C-228.7 -820.2 -114.4 -844.8 0 -869.5L0 0Z" fill="#082334"></path><path d="M-724.6 0C-720.7 -101.3 -716.8 -202.5 -669.4 -277.3C-622.1 -352.1 -531.4 -400.4 -460.2 -460.2C-389.1 -520.1 -337.5 -591.5 -264.1 -637.5C-190.6 -683.5 -95.3 -704 0 -724.6L0 0Z" fill="#11465f"></path><path d="M-579.7 0C-576.5 -81 -573.4 -162 -535.6 -221.8C-497.7 -281.7 -425.1 -320.3 -368.2 -368.2C-311.2 -416.1 -270 -473.2 -211.2 -510C-152.5 -546.8 -76.2 -563.2 0 -579.7L0 0Z" fill="#156d8c"></path><path d="M-434.8 0C-432.4 -60.8 -430.1 -121.5 -401.7 -166.4C-373.3 -211.2 -318.8 -240.2 -276.1 -276.1C-233.4 -312 -202.5 -354.9 -158.4 -382.5C-114.4 -410.1 -57.2 -422.4 0 -434.8L0 0Z" fill="#1298b9"></path><path d="M-289.8 0C-288.3 -40.5 -286.7 -81 -267.8 -110.9C-248.8 -140.8 -212.5 -160.1 -184.1 -184.1C-155.6 -208 -135 -236.6 -105.6 -255C-76.2 -273.4 -38.1 -281.6 0 -289.8L0 0Z" fill="#08c5e4"></path><path d="M-144.9 0C-144.1 -20.3 -143.4 -40.5 -133.9 -55.5C-124.4 -70.4 -106.3 -80.1 -92 -92C-77.8 -104 -67.5 -118.3 -52.8 -127.5C-38.1 -136.7 -19.1 -140.8 0 -144.9L0 0Z" fill="#08dcf9"></path></g><g transform="translate(0, 0)"><path d="M869.5 0C869.5 122.1 869.5 244.2 803.3 332.7C737.2 421.3 604.9 476.4 499.2 499.2C393.5 522.1 314.5 512.8 235.7 569.1C157 625.5 78.5 747.5 0 869.5L0 0Z" fill="#082334"></path><path d="M724.6 0C724.6 101.7 724.6 203.5 669.4 277.3C614.3 351.1 504.1 397 416 416C328 435.1 262.1 427.3 196.4 474.3C130.8 521.2 65.4 622.9 0 724.6L0 0Z" fill="#11465f"></path><path d="M579.7 0C579.7 81.4 579.7 162.8 535.6 221.8C491.4 280.9 403.3 317.6 332.8 332.8C262.4 348.1 209.7 341.8 157.2 379.4C104.6 417 52.3 498.3 0 579.7L0 0Z" fill="#156d8c"></path><path d="M434.8 0C434.7 61 434.7 122.1 401.7 166.4C368.6 210.7 302.4 238.2 249.6 249.6C196.8 261 157.2 256.4 117.9 284.6C78.5 312.7 39.2 373.7 0 434.8L0 0Z" fill="#1298b9"></path><path d="M289.8 0C289.8 40.7 289.8 81.4 267.8 110.9C245.7 140.4 201.6 158.8 166.4 166.4C131.2 174 104.8 170.9 78.6 189.7C52.3 208.5 26.2 249.2 0 289.8L0 0Z" fill="#08c5e4"></path><path d="M144.9 0C144.9 20.3 144.9 40.7 133.9 55.5C122.9 70.2 100.8 79.4 83.2 83.2C65.6 87 52.4 85.5 39.3 94.9C26.2 104.2 13.1 124.6 0 144.9L0 0Z" fill="#08dcf9"></path></g></svg>